<svg width="24" height="24" viewBox="0 0 24 24" fill="none" xmlns="http://www.w3.org/2000/svg">
<g clip-path="url(#clip0_29:885)">
<path d="M1.072 0.141968C0.787688 0.141968 0.515021 0.25491 0.313982 0.455949C0.112943 0.656988 0 0.929656 0 1.21397L0 22.786C0 23.0703 0.112943 23.3429 0.313982 23.544C0.515021 23.745 0.787688 23.858 1.072 23.858H22.928C23.2123 23.858 23.485 23.745 23.686 23.544C23.8871 23.3429 24 23.0703 24 22.786V1.21397C24 0.929656 23.8871 0.656988 23.686 0.455949C23.485 0.25491 23.2123 0.141968 22.928 0.141968H1.072ZM10.808 1.95997C10.9834 1.95978 11.1551 2.01064 11.3021 2.10635C11.4492 2.20206 11.5652 2.33847 11.636 2.49897C11.7434 2.41065 11.8723 2.35246 12.0095 2.33037C12.1467 2.30827 12.2874 2.32307 12.417 2.37324C12.5467 2.4234 12.6607 2.50714 12.7473 2.61587C12.8339 2.72459 12.8901 2.85439 12.91 2.99197C13.0006 2.94953 13.1 2.92898 13.2 2.93197C13.53 2.93997 13.79 3.19397 13.825 3.50697C13.9741 3.27431 14.1923 3.0942 14.449 2.99197C14.7712 2.86117 15.132 2.86231 15.4534 2.99514C15.7748 3.12797 16.0311 3.38184 16.167 3.70197C16.2542 3.60583 16.3578 3.52593 16.473 3.46597C16.7332 3.33283 17.0356 3.30851 17.3137 3.39834C17.5918 3.48816 17.8229 3.68479 17.956 3.94497C18.0307 4.09068 18.0717 4.2513 18.076 4.41497C18.2502 4.34469 18.4407 4.3252 18.6256 4.35877C18.8104 4.39233 18.9819 4.47758 19.1202 4.60463C19.2586 4.73168 19.3581 4.89534 19.4073 5.07663C19.4564 5.25792 19.4532 5.44943 19.398 5.62897C19.5769 5.59793 19.7611 5.62151 19.9264 5.69663C20.0918 5.77176 20.2307 5.89495 20.325 6.05015C20.4193 6.20535 20.4647 6.38536 20.4553 6.56673C20.4458 6.7481 20.382 6.92242 20.272 7.06697C20.4012 7.11892 20.5142 7.20434 20.5994 7.31444C20.6847 7.42454 20.739 7.55536 20.757 7.69344C20.7749 7.83153 20.7557 7.97189 20.7014 8.1001C20.6471 8.22832 20.5596 8.33976 20.448 8.42297C20.5279 8.48187 20.5929 8.55856 20.638 8.64697C20.6874 8.74196 20.7123 8.8478 20.7104 8.95487C20.7085 9.06193 20.6798 9.16681 20.627 9.25997C20.802 9.30466 20.966 9.38463 21.109 9.49497C21.3833 9.70799 21.5638 10.0196 21.612 10.3636C21.6601 10.7076 21.5723 11.0568 21.367 11.337C21.4915 11.3662 21.61 11.417 21.717 11.487C21.9619 11.644 22.1348 11.8915 22.1979 12.1755C22.2611 12.4595 22.2093 12.757 22.054 13.003C21.9666 13.142 21.849 13.2596 21.71 13.347C21.9052 13.4989 22.0367 13.7182 22.0789 13.9619C22.121 14.2056 22.0708 14.4563 21.938 14.665C21.7993 14.8817 21.5828 15.037 21.333 15.099C21.451 15.2379 21.5242 15.4092 21.5431 15.5905C21.562 15.7718 21.5256 15.9546 21.4388 16.1148C21.352 16.2751 21.2187 16.4054 21.0565 16.4886C20.8944 16.5717 20.7108 16.6039 20.53 16.581C20.5277 16.5676 20.525 16.5542 20.522 16.541C20.5494 16.6806 20.5383 16.8251 20.4898 16.959C20.4414 17.0928 20.3574 17.2109 20.2469 17.3006C20.1364 17.3903 20.0036 17.4483 19.8627 17.4683C19.7218 17.4882 19.5781 17.4695 19.447 17.414C19.4368 17.5137 19.4032 17.6096 19.349 17.694C19.3021 17.7699 19.2394 17.8349 19.1652 17.8846C19.091 17.9342 19.0071 17.9675 18.919 17.982C18.9529 18.1315 18.9607 18.2858 18.942 18.438C18.9015 18.7823 18.7285 19.0973 18.4597 19.3162C18.1909 19.5352 17.8474 19.6409 17.502 19.611C17.5418 19.7325 17.5601 19.8601 17.556 19.988C17.5481 20.2796 17.425 20.5561 17.2136 20.7571C17.0021 20.958 16.7196 21.067 16.428 21.06C16.2643 21.0555 16.1038 21.0145 15.958 20.94C15.9365 21.1263 15.8627 21.3027 15.7451 21.4488C15.6276 21.595 15.4711 21.7049 15.2937 21.7659C15.1163 21.8268 14.9253 21.8364 14.7428 21.7934C14.5602 21.7504 14.3935 21.6567 14.262 21.523C14.2039 21.696 14.0948 21.8474 13.949 21.9572C13.8032 22.0671 13.6276 22.1302 13.4452 22.1383C13.2629 22.1464 13.0823 22.0992 12.9274 22.0027C12.7724 21.9063 12.6502 21.7652 12.577 21.598C12.4696 21.6863 12.3407 21.7445 12.2035 21.7666C12.0663 21.7887 11.9256 21.7739 11.796 21.7237C11.6663 21.6735 11.5523 21.5898 11.4657 21.4811C11.3791 21.3723 11.3229 21.2425 11.303 21.105C11.2127 21.1488 11.1134 21.1707 11.013 21.169C10.8565 21.165 10.7068 21.1038 10.5924 20.9969C10.4779 20.89 10.4066 20.7449 10.392 20.589L10.396 20.582C10.2459 20.8187 10.0247 21.0018 9.764 21.105C9.44204 21.2336 9.08264 21.2319 8.76194 21.1001C8.44125 20.9683 8.18447 20.7168 8.046 20.399C7.95842 20.4937 7.85484 20.5722 7.74 20.631C7.48024 20.7632 7.17867 20.7872 6.90129 20.6976C6.62391 20.608 6.39332 20.4122 6.26 20.153C6.18415 20.0072 6.14211 19.8462 6.137 19.682C5.96339 19.7507 5.77392 19.7692 5.59031 19.7352C5.40669 19.7013 5.23635 19.6163 5.09879 19.49C4.96124 19.3637 4.86204 19.2013 4.81256 19.0212C4.76307 18.8412 4.76531 18.6508 4.819 18.472C4.63939 18.5039 4.45433 18.4807 4.28815 18.4054C4.12196 18.3302 3.98243 18.2065 3.88788 18.0505C3.79332 17.8945 3.74818 17.7135 3.75837 17.5314C3.76857 17.3492 3.83363 17.1744 3.945 17.03C3.81581 16.978 3.7028 16.8926 3.61756 16.7825C3.53233 16.6724 3.47795 16.5416 3.46003 16.4035C3.44211 16.2654 3.46129 16.125 3.51559 15.9968C3.56989 15.8686 3.65736 15.7572 3.769 15.674C3.68767 15.6155 3.62122 15.5388 3.575 15.45C3.52609 15.3554 3.50149 15.2501 3.50341 15.1436C3.50533 15.0371 3.53371 14.9328 3.586 14.84L3.605 14.844C3.42441 14.8 3.25509 14.7186 3.108 14.605C2.83218 14.3925 2.65039 14.0805 2.60143 13.7358C2.55248 13.3911 2.64025 13.0409 2.846 12.76C2.72175 12.732 2.60332 12.6826 2.496 12.614C2.24998 12.4569 2.07632 12.2086 2.01314 11.9237C1.94996 11.6387 2.00242 11.3403 2.159 11.094C2.24772 10.9561 2.36631 10.8399 2.506 10.754C2.35739 10.6395 2.2442 10.4854 2.17949 10.3094C2.11477 10.1333 2.10119 9.94255 2.1403 9.75912C2.17942 9.57568 2.26963 9.40706 2.40052 9.27272C2.53141 9.13839 2.69764 9.04383 2.88 8.99997C2.76272 8.86098 2.69009 8.68985 2.6716 8.50893C2.6531 8.32801 2.6896 8.14572 2.77633 7.98588C2.86306 7.82603 2.99598 7.69606 3.15773 7.61294C3.31948 7.52982 3.50254 7.49742 3.683 7.51997C3.66259 7.3821 3.67931 7.24128 3.73142 7.11202C3.78353 6.98276 3.86916 6.86972 3.97948 6.78456C4.08981 6.6994 4.22084 6.64518 4.35909 6.6275C4.49733 6.60982 4.63779 6.62931 4.766 6.68397C4.77625 6.58424 4.80982 6.48832 4.864 6.40397C4.91242 6.3287 4.97588 6.26427 5.05039 6.2147C5.12491 6.16514 5.20887 6.13152 5.297 6.11597C5.26256 5.96789 5.25377 5.81501 5.271 5.66397C5.3113 5.31854 5.48491 5.0025 5.75483 4.7832C6.02475 4.56391 6.36963 4.45869 6.716 4.48997C6.67414 4.36877 6.65383 4.24117 6.656 4.11297C6.65963 3.96828 6.69175 3.82573 6.75052 3.69347C6.8093 3.56121 6.89357 3.44184 6.99853 3.34218C7.10348 3.24252 7.22705 3.16453 7.36218 3.11267C7.4973 3.06082 7.64132 3.03611 7.786 3.03997C7.94929 3.04274 8.10988 3.08203 8.256 3.15497C8.27817 2.96899 8.35245 2.79305 8.47025 2.64744C8.58806 2.50183 8.74461 2.39247 8.92186 2.33196C9.09912 2.27145 9.28986 2.26224 9.47212 2.30542C9.65437 2.34859 9.82072 2.44237 9.952 2.57597C10.0122 2.39628 10.1273 2.24004 10.281 2.12932C10.4348 2.01861 10.6195 1.95902 10.809 1.95897L10.808 1.95997ZM3.683 7.51897C3.6853 7.5327 3.68797 7.54637 3.691 7.55997L3.687 7.51997C3.68567 7.51963 3.68433 7.5193 3.683 7.51897V7.51897ZM17.502 19.61C17.5013 19.6086 17.5007 19.6073 17.5 19.606H17.463C17.476 19.6075 17.489 19.6088 17.502 19.61V19.61ZM13.825 3.50697C13.8223 3.51095 13.8196 3.51495 13.817 3.51897L13.825 3.50797V3.50697ZM11.456 3.49297L11.453 3.49597C11.3666 3.58418 11.263 3.65368 11.1486 3.70013C11.0342 3.74657 10.9114 3.76899 10.788 3.76597C10.5721 3.76143 10.365 3.67904 10.205 3.53397C10.1464 3.74879 10.0173 3.93771 9.83856 4.07044C9.65977 4.20317 9.44159 4.27203 9.219 4.26597C9.09469 4.26392 8.97189 4.23848 8.857 4.19097C8.84407 4.46679 8.72769 4.72761 8.53106 4.92146C8.33443 5.11532 8.07198 5.22797 7.796 5.23697C7.90661 5.46547 7.9493 5.72092 7.919 5.97297C7.89312 6.19197 7.81335 6.40114 7.68683 6.58176C7.5603 6.76238 7.39098 6.90882 7.194 7.00797C7.29548 7.1134 7.3749 7.23802 7.42762 7.37453C7.48033 7.51104 7.50528 7.6567 7.501 7.80297C7.49498 8.03883 7.41369 8.26659 7.269 8.45297C7.59 8.63297 7.799 8.97597 7.792 9.36797C7.788 9.48346 7.76433 9.59743 7.722 9.70497C7.9517 9.72884 8.16387 9.83869 8.31596 10.0125C8.46804 10.1863 8.54879 10.4111 8.542 10.642C8.54212 10.6882 8.53878 10.7343 8.532 10.78C8.58383 10.7711 8.63646 10.7677 8.689 10.77C9.032 10.777 9.316 11.02 9.391 11.34C9.50335 11.265 9.63597 11.2263 9.771 11.229C10.081 11.236 10.332 11.453 10.403 11.74C10.4608 11.7074 10.5254 11.6891 10.5917 11.6865C10.6579 11.6839 10.7239 11.6971 10.784 11.725C10.828 11.492 10.9325 11.2748 11.087 11.095C11.0367 11.057 10.9957 11.0081 10.967 10.952C10.9359 10.8912 10.92 10.8238 10.9207 10.7555C10.9214 10.6872 10.9387 10.6201 10.971 10.56C10.8552 10.5337 10.7486 10.477 10.6621 10.3956C10.5757 10.3142 10.5126 10.2112 10.4795 10.0972C10.4463 9.98321 10.4443 9.86243 10.4735 9.74738C10.5028 9.63234 10.5624 9.52723 10.646 9.44297C10.4914 9.37543 10.3646 9.25681 10.287 9.10697C10.2403 9.01532 10.2133 8.91494 10.2076 8.81225C10.2019 8.70956 10.2176 8.60681 10.2539 8.51055C10.2901 8.41429 10.346 8.32664 10.418 8.25319C10.49 8.17974 10.5765 8.12211 10.672 8.08397C10.6516 8.09175 10.6316 8.10043 10.612 8.10997C10.5297 8.03555 10.4616 7.94677 10.411 7.84797C10.3464 7.72287 10.3115 7.58454 10.3091 7.44376C10.3067 7.30297 10.3368 7.16353 10.3971 7.03628C10.4573 6.90903 10.5462 6.79742 10.6567 6.71012C10.7671 6.62282 10.8963 6.5622 11.034 6.53297V6.52997C10.9108 6.29009 10.8876 6.0112 10.9695 5.75428C11.0514 5.49736 11.2317 5.28332 11.471 5.15897C11.641 5.06996 11.8328 5.03112 12.024 5.04697C12.0108 4.83223 12.0603 4.61828 12.1665 4.43116C12.2726 4.24404 12.4309 4.0918 12.622 3.99297C12.6417 3.98372 12.6618 3.97505 12.682 3.96697C12.633 3.90433 12.596 3.83312 12.573 3.75697C12.4386 3.84684 12.2797 3.89294 12.118 3.88897C11.9829 3.88562 11.8509 3.8474 11.7349 3.77802C11.6189 3.70863 11.5229 3.61044 11.456 3.49297V3.49297ZM16.029 5.00497C15.8814 5.2113 15.6776 5.37095 15.442 5.46497C15.2374 5.54681 15.0156 5.57668 14.7966 5.5519C14.5776 5.52712 14.3682 5.44847 14.187 5.32297V5.31197C14.1434 5.45327 14.0721 5.58444 13.9771 5.69777C13.8821 5.81111 13.7655 5.90433 13.634 5.97197C13.4243 6.08175 13.1849 6.12136 12.951 6.08497C12.9478 6.26929 12.8946 6.44929 12.7973 6.60583C12.6999 6.76237 12.5619 6.88959 12.398 6.97397C12.2951 7.02749 12.1839 7.063 12.069 7.07897C12.1574 7.29219 12.1623 7.53091 12.0826 7.74755C12.0029 7.9642 11.8445 8.14287 11.639 8.24797C11.5981 8.2698 11.5557 8.28851 11.512 8.30397C11.5452 8.34415 11.574 8.38773 11.598 8.43397C11.6729 8.57989 11.697 8.7466 11.6666 8.90777C11.6362 9.06894 11.5529 9.21538 11.43 9.32397C11.5502 9.38729 11.648 9.4861 11.71 9.60697C11.778 9.73714 11.8003 9.8864 11.7733 10.0308C11.7462 10.1751 11.6715 10.3062 11.561 10.403C11.626 10.4427 11.6789 10.4994 11.714 10.567C11.733 10.601 11.744 10.635 11.752 10.668C11.9712 10.6066 12.2023 10.6015 12.424 10.653C12.4339 10.6026 12.4529 10.5545 12.48 10.511C12.5168 10.4536 12.5669 10.4059 12.6261 10.3722C12.6854 10.3384 12.7519 10.3194 12.82 10.317C12.7837 10.204 12.7784 10.0833 12.8044 9.96757C12.8305 9.8518 12.8871 9.74512 12.9683 9.6586C13.0495 9.57208 13.1524 9.50887 13.2663 9.47552C13.3802 9.44218 13.5009 9.43991 13.616 9.46897C13.5975 9.30151 13.6371 9.13279 13.728 8.99097C13.7798 8.90927 13.8472 8.83863 13.9264 8.78311C14.0055 8.72758 14.0949 8.68828 14.1894 8.66746C14.2838 8.64664 14.3814 8.64471 14.4766 8.66179C14.5718 8.67887 14.6627 8.71461 14.744 8.76697C14.7674 8.65809 14.8104 8.55439 14.871 8.46097C14.9356 8.35872 15.0198 8.27029 15.1188 8.2008C15.2177 8.1313 15.3295 8.08211 15.4476 8.05607C15.5657 8.03003 15.6878 8.02766 15.8068 8.0491C15.9258 8.07054 16.0394 8.11536 16.141 8.18097C16.207 8.22404 16.2672 8.27547 16.32 8.33397C16.3918 8.22089 16.4852 8.12307 16.5949 8.0461C16.7045 7.96912 16.8282 7.91449 16.959 7.88534C17.0897 7.85618 17.2249 7.85306 17.3569 7.87616C17.4888 7.89926 17.6149 7.94813 17.728 8.01997C17.8901 8.12236 18.0198 8.26871 18.102 8.44197C18.457 8.20197 18.935 8.18097 19.316 8.42697C19.3924 8.47556 19.4626 8.53332 19.525 8.59897C19.5484 8.56017 19.5759 8.52397 19.607 8.49097C19.4643 8.4155 19.3483 8.29781 19.275 8.15397C19.2133 8.0339 19.1836 7.89993 19.1889 7.76503C19.1941 7.63013 19.2341 7.49887 19.305 7.38397C19.1866 7.35001 19.0764 7.2921 18.9813 7.21384C18.8862 7.13557 18.8081 7.03862 18.752 6.92897C18.6525 6.73685 18.6258 6.5152 18.677 6.30497C18.4605 6.35726 18.2327 6.33532 18.0301 6.24265C17.8276 6.14999 17.662 5.99198 17.56 5.79397C17.5029 5.68195 17.4677 5.56013 17.456 5.43497C17.2077 5.55594 16.9229 5.57886 16.6584 5.49916C16.3939 5.41946 16.1692 5.243 16.029 5.00497V5.00497ZM5.249 7.36997C5.25638 7.53245 5.21305 7.69321 5.125 7.82997C5.0524 7.94373 4.95166 8.03683 4.83253 8.10025C4.7134 8.16366 4.57992 8.19526 4.445 8.19197C4.505 8.42697 4.471 8.68197 4.333 8.90197C4.2171 9.08368 4.03958 9.21753 3.833 9.27897C4.143 9.60397 4.206 10.108 3.953 10.504C3.88569 10.6089 3.79918 10.7002 3.698 10.773C3.92838 10.926 4.09251 11.1604 4.15758 11.4292C4.22265 11.698 4.18388 11.9815 4.049 12.223C4.30095 12.2471 4.54073 12.3429 4.74 12.499C4.91399 12.6341 5.05181 12.8102 5.14116 13.0116C5.2305 13.2129 5.26858 13.4333 5.252 13.653C5.532 13.589 5.831 13.634 6.092 13.803C6.2906 13.9286 6.44402 14.1143 6.53 14.333C6.69128 14.2423 6.8742 14.1971 7.05916 14.2024C7.24412 14.2077 7.42416 14.2632 7.58 14.363C7.67823 14.4247 7.76515 14.5029 7.837 14.594C7.97507 14.4087 8.17817 14.2826 8.40545 14.2411C8.63273 14.1995 8.86731 14.2456 9.062 14.37C9.10148 14.3957 9.13893 14.4245 9.174 14.456C9.19251 14.4062 9.21631 14.3586 9.245 14.314C9.33311 14.1758 9.46456 14.0709 9.61875 14.0155C9.77294 13.9601 9.94115 13.9575 10.097 14.008C10.0908 13.8738 10.1257 13.7409 10.197 13.627C10.2762 13.5036 10.394 13.41 10.532 13.3606C10.67 13.3112 10.8205 13.3089 10.96 13.354C10.9615 13.2749 10.9854 13.1979 11.029 13.1318C11.0725 13.0658 11.1339 13.0135 11.206 12.981C11.0471 12.8373 10.9245 12.6581 10.848 12.458V12.45C10.7748 12.501 10.6872 12.5273 10.598 12.525C10.5295 12.5236 10.4625 12.5056 10.4025 12.4725C10.3426 12.4394 10.2916 12.3922 10.254 12.335C10.1758 12.423 10.0757 12.4888 9.96377 12.5254C9.85187 12.5621 9.73225 12.5684 9.61712 12.5437C9.50199 12.519 9.39548 12.4641 9.30849 12.3848C9.2215 12.3054 9.15715 12.2044 9.122 12.092C8.98712 12.1942 8.82114 12.2468 8.652 12.241C8.55513 12.239 8.45961 12.2179 8.37095 12.1788C8.2823 12.1397 8.20227 12.0835 8.1355 12.0132C8.06874 11.943 8.01655 11.8603 7.98196 11.7698C7.94737 11.6793 7.93107 11.5828 7.934 11.486C7.82825 11.5223 7.71674 11.5389 7.605 11.535C7.46428 11.5316 7.32623 11.4959 7.20158 11.4305C7.07693 11.3651 6.96904 11.2719 6.88632 11.158C6.80359 11.0441 6.74826 10.9127 6.72461 10.7739C6.70097 10.6352 6.70966 10.4928 6.75 10.358H6.746C6.61231 10.355 6.48052 10.3256 6.35819 10.2716C6.23587 10.2176 6.12541 10.1399 6.03315 10.0431C5.9409 9.94633 5.86866 9.83227 5.82059 9.70748C5.77251 9.5827 5.74954 9.44965 5.753 9.31597C5.75767 9.12571 5.8159 8.94063 5.921 8.78197C5.72513 8.69051 5.56022 8.54385 5.44653 8.35999C5.33284 8.17612 5.27531 7.96307 5.281 7.74697C5.28379 7.6247 5.30677 7.50374 5.349 7.38897C5.31522 7.38526 5.28179 7.37891 5.249 7.36997V7.36997ZM16.376 9.50297C16.2381 9.68842 16.035 9.81466 15.8076 9.85623C15.5803 9.89781 15.3456 9.85161 15.151 9.72697C15.1117 9.70248 15.0742 9.67506 15.039 9.64497C15.0218 9.69454 14.9993 9.74214 14.972 9.78697C14.8833 9.92438 14.7516 10.0285 14.5975 10.0832C14.4433 10.1378 14.2754 10.1399 14.12 10.089C14.1255 10.2251 14.0888 10.3595 14.015 10.474C13.9367 10.5981 13.8193 10.6926 13.6814 10.7428C13.5434 10.7929 13.3928 10.7958 13.253 10.751C13.2514 10.826 13.2297 10.8992 13.19 10.963C13.169 10.9949 13.1437 11.0238 13.115 11.049C13.2635 11.209 13.3713 11.4024 13.429 11.613C13.4874 11.5854 13.5514 11.5717 13.616 11.573C13.6846 11.575 13.7518 11.5937 13.8115 11.6275C13.8713 11.6613 13.9219 11.7092 13.959 11.767C14.037 11.6779 14.1373 11.6112 14.2496 11.5738C14.362 11.5365 14.4823 11.5298 14.5981 11.5544C14.7138 11.5791 14.821 11.6342 14.9083 11.7141C14.9957 11.794 15.0601 11.8958 15.095 12.009C15.2285 11.906 15.3934 11.852 15.562 11.856C15.972 11.864 16.29 12.204 16.282 12.611C16.282 12.6136 16.282 12.6163 16.282 12.619V12.614C16.3866 12.577 16.4971 12.5594 16.608 12.562C16.7288 12.5644 16.8479 12.5908 16.9584 12.6395C17.0689 12.6882 17.1687 12.7583 17.252 12.8458C17.3353 12.9333 17.4005 13.0364 17.4437 13.1492C17.487 13.262 17.5075 13.3822 17.504 13.503C17.502 13.5829 17.4895 13.6622 17.467 13.739C18.031 13.754 18.475 14.221 18.46 14.785C18.4553 14.9752 18.3971 15.1603 18.292 15.319C18.4892 15.4094 18.6555 15.5556 18.7705 15.7396C18.8855 15.9235 18.9441 16.1371 18.939 16.354C18.9344 16.478 18.9091 16.6003 18.864 16.716L18.868 16.709L18.968 16.727C18.9606 16.5645 19.0039 16.4037 19.092 16.267C19.1646 16.1532 19.2653 16.0601 19.3845 15.9967C19.5036 15.9333 19.6371 15.9017 19.772 15.905C19.7409 15.7853 19.7348 15.6605 19.754 15.5383C19.7733 15.4161 19.8176 15.2993 19.884 15.195C20.0016 15.014 20.1806 14.8815 20.388 14.822C20.2328 14.6613 20.1363 14.453 20.114 14.2308C20.0917 14.0086 20.1449 13.7853 20.265 13.597C20.3329 13.4919 20.4201 13.4006 20.522 13.328C20.291 13.1747 20.1266 12.9397 20.0616 12.6702C19.9967 12.4007 20.0361 12.1166 20.172 11.875C19.9186 11.8526 19.677 11.7578 19.476 11.602H19.473C19.2984 11.4665 19.1602 11.2897 19.0709 11.0876C18.9815 10.8855 18.9437 10.6643 18.961 10.444C18.8189 10.4775 18.6715 10.482 18.5277 10.457C18.3838 10.4321 18.2465 10.3784 18.124 10.299C17.9238 10.1723 17.7696 9.98481 17.684 9.76397C17.5231 9.85527 17.3404 9.90109 17.1554 9.89651C16.9704 9.89193 16.7902 9.83712 16.634 9.73797C16.5351 9.6751 16.4478 9.5956 16.376 9.50297V9.50297ZM16.282 12.619L16.275 12.685C16.2783 12.6631 16.2807 12.6411 16.282 12.619V12.619ZM13.418 12.36C13.3512 12.5875 13.2261 12.7937 13.055 12.958C13.1385 12.9972 13.2067 13.0629 13.249 13.145C13.2803 13.2065 13.2961 13.2748 13.2948 13.3438C13.2936 13.4129 13.2755 13.4806 13.242 13.541C13.3573 13.5671 13.4636 13.6235 13.5499 13.7044C13.6361 13.7852 13.6993 13.8876 13.7328 14.001C13.7663 14.1144 13.769 14.2347 13.7405 14.3495C13.7121 14.4642 13.6536 14.5693 13.571 14.654C13.7253 14.7217 13.8516 14.8403 13.929 14.99C14.0182 15.1642 14.0346 15.3668 13.9746 15.5532C13.9146 15.7395 13.7831 15.8945 13.609 15.984C13.6898 16.0584 13.7565 16.1468 13.806 16.245C13.8617 16.3518 13.8957 16.4686 13.9059 16.5886C13.9162 16.7086 13.9025 16.8295 13.8656 16.9442C13.8288 17.0589 13.7696 17.1652 13.6913 17.2568C13.6131 17.3484 13.5175 17.4236 13.41 17.478C13.3392 17.5149 13.2639 17.5425 13.186 17.56V17.564C13.2473 17.6831 13.2846 17.8131 13.2957 17.9466C13.3068 18.0801 13.2915 18.2145 13.2506 18.3421C13.2098 18.4697 13.1442 18.588 13.0576 18.6902C12.971 18.7925 12.8651 18.8767 12.746 18.938C12.5766 19.0254 12.3859 19.0632 12.196 19.047C12.2097 19.2734 12.1537 19.4986 12.0355 19.6922C11.9173 19.8858 11.7426 20.0386 11.535 20.13C11.5851 20.1924 11.6231 20.2636 11.647 20.34C11.6457 20.3401 11.6443 20.3401 11.643 20.34V20.343C11.7775 20.2522 11.9368 20.2054 12.099 20.209C12.2336 20.2121 12.3651 20.2498 12.4808 20.3184C12.5966 20.3871 12.6927 20.4844 12.76 20.601C12.8464 20.5128 12.95 20.4433 13.0644 20.3968C13.1788 20.3504 13.3016 20.3279 13.425 20.331C13.6429 20.3356 13.8515 20.4195 14.012 20.567C14.0697 20.3521 14.1978 20.1628 14.3759 20.0293C14.5539 19.8959 14.7716 19.826 14.994 19.831C15.1186 19.8343 15.2414 19.8611 15.356 19.91V19.932C15.363 19.6517 15.4767 19.3847 15.6738 19.1855C15.871 18.9863 16.1369 18.8698 16.417 18.86C16.3064 18.6315 16.2637 18.376 16.294 18.124C16.35 17.664 16.634 17.287 17.019 17.089L17.022 17.093C16.9201 16.9877 16.8402 16.8632 16.7869 16.7267C16.7337 16.5902 16.7082 16.4444 16.712 16.298C16.7172 16.0607 16.7985 15.8314 16.944 15.644C16.7315 15.524 16.569 15.3318 16.486 15.1023C16.4031 14.8727 16.4052 14.6211 16.492 14.393C16.2625 14.3696 16.0502 14.2604 15.8978 14.0872C15.7454 13.914 15.664 13.6896 15.67 13.459C15.67 13.4114 15.6737 13.3639 15.681 13.317C15.6294 13.3275 15.5767 13.3326 15.524 13.332C15.3609 13.3269 15.204 13.2681 15.0777 13.1647C14.9515 13.0612 14.863 12.9189 14.826 12.76C14.7124 12.8363 14.5778 12.8754 14.441 12.872C14.2948 12.8672 14.1542 12.8145 14.0409 12.722C13.9277 12.6294 13.8479 12.5023 13.814 12.36C13.7478 12.397 13.6728 12.4153 13.597 12.413C13.5344 12.4116 13.4729 12.3963 13.417 12.368L13.418 12.36ZM12.454 13.29C12.3442 13.3179 12.2313 13.332 12.118 13.332C12.006 13.332 11.898 13.32 11.796 13.294C11.8133 13.3963 11.7919 13.5015 11.736 13.589C11.699 13.647 11.6485 13.695 11.5887 13.729C11.5289 13.763 11.4617 13.7819 11.393 13.784C11.428 13.8963 11.4326 14.016 11.4062 14.1307C11.3799 14.2454 11.3236 14.351 11.243 14.4368C11.1625 14.5227 11.0606 14.5856 10.9478 14.6192C10.835 14.6527 10.7154 14.6558 10.601 14.628C10.6195 14.7954 10.5799 14.9641 10.489 15.106C10.3832 15.2706 10.2164 15.3866 10.0253 15.4286C9.83409 15.4706 9.63408 15.4351 9.469 15.33C9.44564 15.4388 9.4026 15.5425 9.342 15.636C9.27743 15.7377 9.1934 15.8256 9.09476 15.8948C8.99611 15.9639 8.88478 16.0129 8.76715 16.0389C8.64953 16.0649 8.52792 16.0675 8.40932 16.0464C8.29071 16.0253 8.17744 15.9809 8.076 15.916C8.00861 15.8731 7.94709 15.8217 7.893 15.763V15.767C7.7473 15.9947 7.51716 16.1552 7.25315 16.2134C6.98915 16.2715 6.71286 16.2224 6.485 16.077C6.32344 15.9757 6.19379 15.8308 6.111 15.659C5.756 15.898 5.281 15.92 4.897 15.674C4.82024 15.6254 4.74972 15.5677 4.687 15.502C4.66365 15.5396 4.63651 15.5748 4.606 15.607C4.75006 15.6815 4.86746 15.7989 4.942 15.943C5.00312 16.0634 5.03211 16.1975 5.02616 16.3324C5.0202 16.4673 4.9795 16.5984 4.908 16.713C5.02666 16.7464 5.13709 16.8041 5.23228 16.8824C5.32748 16.9607 5.40536 17.058 5.461 17.168C5.56052 17.3601 5.58716 17.5817 5.536 17.792C5.7534 17.7393 5.98223 17.7614 6.18548 17.8549C6.38872 17.9483 6.5545 18.1076 6.656 18.307C6.71162 18.4179 6.74588 18.5383 6.757 18.662C7.00576 18.5398 7.29151 18.5163 7.55692 18.596C7.82233 18.6758 8.04777 18.8529 8.188 19.092C8.33563 18.8856 8.53936 18.726 8.775 18.632C9.205 18.46 9.671 18.528 10.03 18.774C10.0741 18.6347 10.1453 18.5056 10.2395 18.3941C10.3337 18.2825 10.4491 18.1907 10.579 18.124C10.7893 18.0159 11.0286 17.978 11.262 18.016C11.2645 17.831 11.3173 17.6501 11.4147 17.4928C11.5121 17.3355 11.6505 17.2077 11.815 17.123C11.9192 17.0694 12.0319 17.0343 12.148 17.019C12.0584 16.8063 12.0524 16.5676 12.1312 16.3507C12.21 16.1338 12.3678 15.9546 12.573 15.849C12.6153 15.8283 12.6591 15.8109 12.704 15.797C12.6692 15.7557 12.639 15.7108 12.614 15.663C12.5402 15.5174 12.5168 15.3515 12.5474 15.1911C12.578 15.0308 12.6608 14.8852 12.783 14.777C12.6627 14.7134 12.5649 14.6142 12.503 14.493C12.4368 14.3619 12.4156 14.2127 12.4425 14.0683C12.4694 13.9239 12.543 13.7924 12.652 13.694C12.5881 13.6538 12.5363 13.5972 12.502 13.53C12.4624 13.4565 12.4457 13.373 12.454 13.29V13.29Z" fill="black"/>
</g>
<defs>
<clipPath id="clip0_29:885">
<rect width="24" height="24" fill="white"/>
</clipPath>
</defs>
</svg>
