<svg width="24" height="24" viewBox="0 0 24 24" fill="none" xmlns="http://www.w3.org/2000/svg">
<rect width="24" height="24" rx="12" fill="black"/>
<path d="M11.2436 16H9.82852V12.0693C9.82852 11.5726 9.73509 11.2285 9.54824 11.0371C9.36139 10.8457 9.09023 10.75 8.73477 10.75C8.21068 10.75 7.78229 10.9619 7.44961 11.3857C7.12148 11.8096 6.95742 12.3952 6.95742 13.1426V16H5.54238V7.0791H6.95742V11.2285C7.0987 10.6771 7.36074 10.2487 7.74355 9.94336C8.12637 9.63346 8.59805 9.47852 9.15859 9.47852C9.81029 9.47852 10.3207 9.69043 10.6898 10.1143C11.059 10.5381 11.2436 11.1898 11.2436 12.0693V16ZM18.1861 16H16.7711V12.0693C16.7711 11.5726 16.6777 11.2285 16.4908 11.0371C16.304 10.8457 16.0328 10.75 15.6773 10.75C15.1533 10.75 14.7249 10.9619 14.3922 11.3857C14.0641 11.8096 13.9 12.3952 13.9 13.1426V16H12.485V7.0791H13.9V11.2285C14.0413 10.6771 14.3033 10.2487 14.6861 9.94336C15.0689 9.63346 15.5406 9.47852 16.1012 9.47852C16.7529 9.47852 17.2633 9.69043 17.6324 10.1143C18.0016 10.5381 18.1861 11.1898 18.1861 12.0693V16Z" fill="white"/>
</svg>
