<svg width="80" height="80" viewBox="0 0 80 80" fill="none" xmlns="http://www.w3.org/2000/svg">
<mask id="mask0_29:862" style="mask-type:alpha" maskUnits="userSpaceOnUse" x="0" y="0" width="80" height="80">
<path d="M80 40C80 17.9086 62.0914 0 40 0C17.9086 0 0 17.9086 0 40C0 62.0914 17.9086 80 40 80C62.0914 80 80 62.0914 80 40Z" fill="white"/>
</mask>
<g mask="url(#mask0_29:862)">
<path d="M80 0H0V80H80V0Z" fill="#F78800"/>
<path d="M5.57224 35.7058L19.3759 87.2219C21.2818 94.3348 28.593 98.5559 35.7059 96.65L87.2219 82.8463C94.3348 80.9404 98.5559 73.6292 96.65 66.5164L82.8463 15.0003C80.9404 7.88743 73.6293 3.66633 66.5164 5.57222L15.0003 19.3759C7.88745 21.2818 3.66635 28.593 5.57224 35.7058Z" fill="#D60000"/>
<path d="M44.2931 52.3565C44.1004 54.5582 45.0819 56.7718 47.0215 58.5103C48.9611 60.2487 51.7 61.3697 54.6356 61.6265C57.5712 61.8834 60.4632 61.255 62.6752 59.8798C64.8872 58.5046 66.2381 56.495 66.4307 54.2933" fill="white"/>
<path d="M50.6022 43.9856C50.7091 42.763 50.0525 41.7068 49.1355 41.6266C48.2186 41.5464 47.3885 42.4725 47.2815 43.6951C47.1746 44.9177 47.8312 45.9739 48.7482 46.0541C49.6651 46.1343 50.4952 45.2082 50.6022 43.9856Z" fill="white"/>
<path d="M63.8848 45.1477C63.9917 43.9251 63.3351 42.8689 62.4181 42.7887C61.5012 42.7085 60.6711 43.6346 60.5641 44.8572C60.4572 46.0798 61.1138 47.136 62.0308 47.2162C62.9478 47.2964 63.7778 46.3703 63.8848 45.1477Z" fill="white"/>
</g>
</svg>
