<svg width="80" height="80" viewBox="0 0 80 80" fill="none" xmlns="http://www.w3.org/2000/svg">
<mask id="mask0_29:852" style="mask-type:alpha" maskUnits="userSpaceOnUse" x="0" y="0" width="80" height="80">
<path d="M80 40C80 17.9086 62.0914 0 40 0C17.9086 0 0 17.9086 0 40C0 62.0914 17.9086 80 40 80C62.0914 80 80 62.0914 80 40Z" fill="white"/>
</mask>
<g mask="url(#mask0_29:852)">
<path d="M80 0H0V80H80V0Z" fill="#FFA600"/>
<path d="M75.3365 39.7367C77.6457 17.7663 61.7071 -1.91618 39.7367 -4.22536C17.7664 -6.53453 -1.91609 9.40401 -4.22527 31.3744C-6.53445 53.3448 9.4041 73.0272 31.3745 75.3364C53.3448 77.6456 73.0273 61.707 75.3365 39.7367Z" fill="#E34400"/>
<path d="M19.8043 32.6243C23.9921 35.2989 28.4122 35.7635 33.0646 34.018" stroke="white" stroke-width="2.22222" stroke-linecap="round"/>
<path d="M19.6284 23.668C19.7567 22.4474 19.1186 21.3799 18.2031 21.2837C17.2877 21.1875 16.4416 22.099 16.3133 23.3195C16.185 24.5401 16.8231 25.6076 17.7386 25.7038C18.654 25.8 19.5001 24.8886 19.6284 23.668Z" fill="white"/>
<path d="M37.3087 25.5263C37.437 24.3057 36.7989 23.2382 35.8835 23.142C34.9681 23.0458 34.122 23.9572 33.9937 25.1778C33.8654 26.3984 34.5035 27.4659 35.4189 27.5621C36.3343 27.6583 37.1805 26.7468 37.3087 25.5263Z" fill="white"/>
</g>
</svg>
