<svg width="24" height="24" viewBox="0 0 24 24" fill="none" xmlns="http://www.w3.org/2000/svg">
<path d="M15.684 0H8.316C1.592 0 0 1.592 0 8.316V15.684C0 22.408 1.592 24 8.316 24H15.684C22.408 24 24 22.408 24 15.684V8.316C24 1.592 22.391 0 15.684 0ZM19.376 17.123H17.632C16.972 17.123 16.768 16.598 15.582 15.396C14.549 14.396 14.092 14.261 13.838 14.261C13.482 14.261 13.38 14.363 13.38 14.854V16.429C13.38 16.853 13.245 17.107 12.127 17.107C10.281 17.107 8.231 15.989 6.792 13.905C4.624 10.857 4.03 8.57 4.03 8.096C4.03 7.842 4.132 7.605 4.623 7.605H6.367C6.807 7.605 6.977 7.808 7.147 8.282C8.01 10.772 9.45 12.957 10.043 12.957C10.263 12.957 10.365 12.855 10.365 12.297V9.721C10.297 8.535 9.67 8.434 9.67 8.011C9.67 7.807 9.84 7.604 10.11 7.604H12.854C13.227 7.604 13.362 7.807 13.362 8.247V11.72C13.362 12.092 13.532 12.228 13.633 12.228C13.853 12.228 14.04 12.092 14.446 11.686C15.7 10.28 16.597 8.112 16.597 8.112C16.716 7.858 16.919 7.621 17.36 7.621H19.104C19.629 7.621 19.748 7.891 19.629 8.264C19.409 9.281 17.275 12.295 17.275 12.295C17.089 12.6 17.021 12.735 17.275 13.075C17.461 13.329 18.071 13.854 18.478 14.328C19.223 15.175 19.798 15.886 19.951 16.378C20.121 16.868 19.866 17.122 19.375 17.122L19.376 17.123Z" fill="black"/>
</svg>
